<svg width="15" height="15" viewBox="0 0 15 15" fill="none" xmlns="http://www.w3.org/2000/svg">
<path d="M9.31801 14.3001C9.05868 14.3001 8.81931 14.1616 8.70237 13.9406L6.66079 10.0822C6.54867 9.87034 6.56793 9.61684 6.71031 9.42119L10.0059 5.20009L5.53819 8.31359C5.33115 8.44879 5.06288 8.46569 4.83864 8.36039L0.756163 6.43184C0.511284 6.31549 0.362017 6.07304 0.37715 5.81434C0.391595 5.55564 0.568376 5.32944 0.825638 5.24039L13.8951 0.690388C14.1461 0.603938 14.4288 0.660488 14.6194 0.840538C14.8092 1.01929 14.8711 1.28709 14.7783 1.52499L9.96322 13.875C9.8683 14.1181 9.62961 14.2851 9.35584 14.2988C9.34346 14.2994 9.33039 14.3001 9.31801 14.3001Z" fill="black"/>
</svg>
